Coordinates
version=1
nRows=22
nColumns=24
inDegrees=yes

Units are S.I. units (second, meters, Newtons, ...)
Angles are in degrees.

endheader
time	pelvis_tilt	pelvis_list	pelvis_rotation	pelvis_tx	pelvis_ty	pelvis_tz	hip_flexion_r	hip_adduction_r	hip_rotation_r	knee_angle_r	ankle_angle_r	subtalar_angle_r	mtp_angle_r	hip_flexion_l	hip_adduction_l	hip_rotation_l	knee_angle_l	ankle_angle_l	subtalar_angle_l	mtp_angle_l	lumbar_extension	lumbar_bending	lumbar_rotation
      3.56000000	     -0.29049866	      2.95300730	      0.71186623	     -1.48954066	      0.91311368	      0.20315829	     30.29523385	     -1.20994601	     -4.69730135	    -14.97061300	      9.78433221	     -5.54637165	      0.00000000	    -13.54391567	      7.51355106	      5.27791124	    -20.66944931	     23.59126760	     -9.25713210	      0.00000000	    -11.24739686	     -2.78440941	    -14.81124290
      3.56500000	     -0.23367277	      2.70855321	      0.74821469	     -1.48153804	      0.91233747	      0.20368577	     30.24954782	     -0.93706517	     -4.68302604	    -15.78620549	      9.09985818	     -5.85208489	      0.00000000	    -13.46282782	      7.12117833	      4.63850102	    -21.87191400	     23.35638185	     -8.47609540	      0.00000000	    -11.21360762	     -2.46130737	    -14.82098231
      3.57000000	     -0.29073272	      2.40648441	      0.70565597	     -1.47351651	      0.91147699	      0.20440684	     30.30944731	     -0.54589109	     -4.49448494	    -16.55797157	      8.17591834	     -6.30438930	      0.00000000	    -13.17452423	      6.65104731	      3.76041348	    -23.21027882	     23.10525243	     -7.55538237	      0.00000000	    -11.03086207	     -2.09372002	    -14.71106829
      3.57500000	     -0.35237516	      2.10411140	      0.62091711	     -1.46560975	      0.91067625	      0.20528285	     30.38752666	     -0.11198514	     -4.14769686	    -17.33660642	      7.14526054	     -6.84736565	      0.00000000	    -12.80492891	      6.15713922	      2.78911347	    -24.65822321	     22.76681717	     -6.59088902	      0.00000000	    -10.86575458	     -1.74752844	    -14.52893562
      3.58000000	     -0.44653804	      1.74053808	      0.50782053	     -1.45767046	      0.90998113	      0.20617189	     30.49111525	      0.38454765	     -3.87108319	    -18.09254410	      6.05749685	     -7.27756512	      0.00000000	    -12.35415525	      5.59309014	      1.82965732	    -26.17905569	     22.28318077	     -5.67960908	      0.00000000	    -10.65051826	     -1.32575101	    -14.33308509
      3.58500000	     -0.55159558	      1.35780024	      0.38406744	     -1.44981627	      0.90934764	      0.20709917	     30.62183627	      0.91602179	     -3.52011526	    -18.87385522	      4.98456547	     -7.74114654	      0.00000000	    -11.81544005	      4.98441107	      0.84241909	    -27.81582256	     21.69791121	     -4.77261744	      0.00000000	    -10.43879660	     -0.88421880	    -14.10970838
      3.59000000	     -0.67247012	      0.98031156	      0.24027955	     -1.44209673	      0.90876119	      0.20812764	     30.78223507	      1.48562648	     -2.97943127	    -19.67248369	      3.88935493	     -8.39139498	      0.00000000	    -11.18588773	      4.35594049	     -0.14736688	    -29.55679420	     20.99644857	     -3.89830540	      0.00000000	    -10.23352623	     -0.46098321	    -13.88001774
      3.59500000	     -0.80422648	      0.54033348	      0.09481258	     -1.43430354	      0.90825555	      0.20910648	     30.95706407	      2.10209435	     -2.56872949	    -20.49934364	      2.95378356	     -8.90551945	      0.00000000	    -10.49828673	      3.64807880	     -1.09229711	    -31.37530533	     20.15147270	     -3.10420256	      0.00000000	    -10.00025066	      0.04714421	    -13.62401788
      3.60000000	     -0.93566235	      0.04372416	     -0.05969361	     -1.42642319	      0.90782527	      0.21001852	     31.12452343	      2.76729470	     -2.23679059	    -21.34098520	      2.20125106	     -9.34446531	      0.00000000	     -9.77696570	      2.88012380	     -1.96072199	    -33.24780954	     19.15092748	     -2.44650983	      0.00000000	     -9.75605891	      0.63482156	    -13.31325560
      3.60500000	     -1.07638341	     -0.37837302	     -0.22094377	     -1.41878608	      0.90739005	      0.21109571	     31.31875851	      3.42418213	     -1.62743246	    -22.20875597	      1.46260146	    -10.12075076	      0.00000000	     -8.95853346	      2.15190146	     -2.80601503	    -35.22902890	     18.04701893	     -1.80302829	      0.00000000	     -9.54506133	      1.10791330	    -13.07742870
      3.61000000	     -1.18457305	     -0.86718028	     -0.38572506	     -1.41106707	      0.90703634	      0.21202196	     31.47403923	      4.11481519	     -1.21217424	    -23.09975474	      1.00562777	    -10.68063928	      0.00000000	     -8.14804890	      1.36915181	     -3.53992697	    -37.24701811	     16.81441132	     -1.33963660	      0.00000000	     -9.36576641	      1.68750441	    -12.78828654
      3.61500000	     -1.29583278	     -1.31875758	     -0.54826647	     -1.40336672	      0.90673096	      0.21304562	     31.60321541	      4.79891302	     -0.73240474	    -23.95564960	      0.68754005	    -11.38061352	      0.00000000	     -7.28708517	      0.60007722	     -4.22624407	    -39.30594261	     15.42611408	     -0.96669499	      0.00000000	     -9.18258380	      2.19999605	    -12.53331279
      3.62000000	     -1.38171002	     -1.78846222	     -0.71648844	     -1.39571150	      0.90647451	      0.21400301	     31.69433985	      5.49538582	     -0.31689895	    -24.80877840	      0.57189371	    -11.98792226	      0.00000000	     -6.41459753	     -0.17359250	     -4.80961425	    -41.39451818	     13.94942655	     -0.77376926	      0.00000000	     -9.04717886	      2.74538407	    -12.25919284
      3.62500000	     -1.44470020	     -2.26818018	     -0.88446070	     -1.38810444	      0.90628851	      0.21492096	     31.73652454	      6.19840697	      0.05333661	    -25.63269861	      0.62046073	    -12.51618996	      0.00000000	     -5.53072050	     -0.94077608	     -5.28338323	    -43.49437132	     12.37836209	     -0.77781111	      0.00000000	     -8.95448831	      3.30458423	    -11.95858879
      3.63000000	     -1.51537178	     -2.72283958	     -1.06594330	     -1.38054911	      0.90611450	      0.21591679	     31.75395925	      6.89808616	      0.42819560	    -26.40632076	      0.79756543	    -13.07941319	      0.00000000	     -4.59848627	     -1.69475027	     -5.74088755	    -45.60468047	     10.73983479	     -0.90787946	      0.00000000	     -8.86155896	      3.82028662	    -11.69972885
      3.63500000	     -1.55562906	     -3.18982201	     -1.25023651	     -1.37307373	      0.90603754	      0.21681590	     31.70687785	      7.59351865	      0.73023149	    -27.12610483	      1.09277976	    -13.51473005	      0.00000000	     -3.66655461	     -2.42700195	     -6.08870176	    -47.70049548	      9.03271194	     -1.27189313	      0.00000000	     -8.82886529	      4.36229429	    -11.38806179
      3.64000000	     -1.60025257	     -3.64565243	     -1.44821723	     -1.36567578	      0.90599557	      0.21777303	     31.62354575	      8.28690875	      1.01303354	    -27.77406757	      1.47104911	    -13.92913323	      0.00000000	     -2.69518757	     -3.14570357	     -6.40523675	    -49.78075249	      7.28870105	     -1.81041984	      0.00000000	     -8.80905802	      4.88130365	    -11.08744680
      3.64500000	     -1.59972346	     -4.11661706	     -1.64526945	     -1.35826068	      0.90607666	      0.21866576	     31.43289035	      8.97723988	      1.23287752	    -28.33001118	      1.98499272	    -14.22865856	      0.00000000	     -1.75819617	     -3.86539612	     -6.68627109	    -51.81026277	      5.52344873	     -2.55028218	      0.00000000	     -8.84419656	      5.42152969	    -10.79821875
      3.65000000	     -1.73324741	     -4.54917606	     -1.88039059	     -1.35108050	      0.90601427	      0.21968428	     31.36307301	      9.67018056	      1.56466023	    -28.82915333	      2.38085185	    -14.63433001	      0.00000000	     -0.62442848	     -4.52822854	     -6.89832470	    -53.83867718	      3.78089088	     -3.46549815	      0.00000000	     -8.75998435	      5.89669972	    -10.46823413
      3.65500000	     -1.72360934	     -5.03762248	     -2.09912006	     -1.34384498	      0.90622380	      0.22060899	     31.07615150	     10.36575886	      1.70747382	    -29.21993242	      2.93668066	    -14.82521042	      0.00000000	      0.35250566	     -5.24277406	     -7.09930499	    -55.78761281	      2.10139997	     -4.52683037	      0.00000000	     -8.84889425	      6.44202440	    -10.12020843
      3.66000000	     -1.84748452	     -5.43502615	     -2.33488383	     -1.33684086	      0.90632626	      0.22155375	     30.90896017	     10.99688409	      1.96792059	    -29.55650068	      3.37998633	    -15.14069025	      0.00000000	      1.52118410	     -5.82732189	     -7.21705427	    -57.69237148	      0.44492763	     -5.82474904	      0.00000000	     -8.81104681	      6.87837093	     -9.76240274
      3.66500000	     -1.91941759	     -5.86622552	     -2.57109172	     -1.32982645	      0.90656403	      0.22249562	     30.63107197	     11.63911395	      2.15061379	    -29.80006954	      3.88729256	    -15.33644840	      0.00000000	      2.63356566	     -6.44595277	     -7.32384613	    -59.52517448	     -1.03097877	     -7.20187663	      0.00000000	     -8.83913297	      7.35036029	     -9.39286778
